<?xml version="1.0" standalone="no"?><!DOCTYPE svg PUBLIC "-//W3C//DTD SVG 1.1//EN" "http://www.w3.org/Graphics/SVG/1.1/DTD/svg11.dtd"><svg t="1679892272317" class="icon" viewBox="0 0 1024 1024" version="1.1" xmlns="http://www.w3.org/2000/svg" p-id="1629" xmlns:xlink="http://www.w3.org/1999/xlink" width="200" height="200"><path d="M520.326641 673.477356m-24.947773 0a24.947773 24.947773 0 1 0 49.895546 0 24.947773 24.947773 0 1 0-49.895546 0Z" fill="#6BAFFF" p-id="1630"></path><path d="M518.75133 574.666813a24.610207 24.610207 0 0 1 24.626282 24.610207l-15.624508 56.261087c-3.520337 13.74378-18.389338 13.502661-18.389338 0l-15.222642-56.261087A24.610207 24.610207 0 0 1 518.75133 574.666813z" fill="#6BAFFF" p-id="1631"></path><path d="M518.767405 774.570491a24.610207 24.610207 0 0 1-24.626281-24.610207l15.624507-56.261086c3.520337-13.74378 18.389338-13.502661 18.389338 0l15.222643 56.261086a24.610207 24.610207 0 0 1-24.610207 24.610207z" fill="#6BAFFF" p-id="1632"></path><path d="M445.033232 744.543146a24.610207 24.610207 0 0 1 1.22167-34.785427l51.792349-26.941023c12.457812-6.799554 22.424062 4.227619 12.538185 13.438363l-30.750703 49.509756a24.610207 24.610207 0 0 1-34.785426-1.221669z" fill="#6BAFFF" p-id="1633"></path><path d="M420.808816 666.709951a24.610207 24.610207 0 0 0 20.961273 27.809051l57.94892-7.635433c14.081346-1.591385 15.849552-16.33179 2.571935-18.212517L448.601793 645.764752a24.610207 24.610207 0 0 0-27.809052 20.945199z" fill="#6BAFFF" p-id="1634"></path><path d="M446.158454 603.552863a24.610207 24.610207 0 0 0 0 34.817575l50.860022 28.773527c12.216693 7.217494 22.504435-3.504262 13.020423-12.988274L480.94388 603.552863a24.610207 24.610207 0 0 0-34.817575 0z" fill="#6BAFFF" p-id="1635"></path><path d="M591.39243 603.552863a24.610207 24.610207 0 0 1 0 34.8015L540.564557 667.095741c-12.216693 7.233568-22.552658-3.456038-13.004348-13.004348L556.59093 603.552863a24.610207 24.610207 0 0 1 34.817575 0z" fill="#6BAFFF" p-id="1636"></path><path d="M619.812317 666.709951a24.610207 24.610207 0 0 1-20.945199 27.809051L540.998571 686.883569c-14.097421-1.57531-15.929925-16.33179-2.571935-18.212517l53.608778-22.9063a24.610207 24.610207 0 0 1 27.809052 20.945199z" fill="#6BAFFF" p-id="1637"></path><path d="M592.485503 744.543146a24.610207 24.610207 0 0 0-1.221669-34.801501l-51.856648-27.005322c-12.441737-6.75133-22.343689 4.307992-12.538185 13.454437l30.815001 49.55798a24.610207 24.610207 0 0 0 34.801501-1.205594z" fill="#6BAFFF" p-id="1638"></path><path d="M578.516679 315.946188m-315.946188 0a315.946188 315.946188 0 1 0 631.892376 0 315.946188 315.946188 0 1 0-631.892376 0Z" fill="#C9EAF2" p-id="1639"></path><path d="M295.828831 365.841734m-266.066716 0a266.066716 266.066716 0 1 0 532.133432 0 266.066716 266.066716 0 1 0-532.133432 0Z" fill="#C9EAF2" p-id="1640"></path><path d="M761.429509 399.100074m-232.808377 0a232.808376 232.808376 0 1 0 465.616753 0 232.808376 232.808376 0 1 0-465.616753 0Z" fill="#C9EAF2" p-id="1641"></path><path d="M295.86098 631.892376l454.702102-0.257194 9.467937-171.644538-511.300755-52.097766z" fill="#C9EAF2" p-id="1642"></path><path d="M329.08717 332.583395a241.118943 232.808376 0 1 0 482.237885 0 241.118943 232.808376 0 1 0-482.237885 0Z" fill="#FFFFFF" p-id="1643"></path><path d="M162.795473 365.841734a207.860603 199.550037 0 1 0 415.721206 0 207.860603 199.550037 0 1 0-415.721206 0Z" fill="#FFFFFF" p-id="1644"></path><path d="M719.860603 390.773433m-174.602264 0a174.602264 174.602264 0 1 0 349.204528 0 174.602264 174.602264 0 1 0-349.204528 0Z" fill="#FFFFFF" p-id="1645"></path><path d="M368.871796 565.375697h360.504968l-73.332308-133.499522-248.97942-6.590584z" fill="#FFFFFF" p-id="1646"></path><path d="M503.689434 922.906865m-24.947773 0a24.947773 24.947773 0 1 0 49.895546 0 24.947773 24.947773 0 1 0-49.895546 0Z" fill="#6BAFFF" p-id="1647"></path><path d="M502.114123 824.096322a24.610207 24.610207 0 0 1 24.626282 24.610207l-15.624508 56.261086c-3.520337 13.74378-18.389338 13.502661-18.389338 0l-15.222642-56.261086A24.610207 24.610207 0 0 1 502.114123 824.096322z" fill="#6BAFFF" p-id="1648"></path><path d="M502.130198 1024a24.610207 24.610207 0 0 1-24.626281-24.610207l15.624507-56.261086c3.520337-13.74378 18.389338-13.502661 18.389338 0l15.222643 56.261086a24.610207 24.610207 0 0 1-24.610207 24.610207z" fill="#6BAFFF" p-id="1649"></path><path d="M428.396025 993.972654a24.610207 24.610207 0 0 1 1.22167-34.785426l51.792348-26.941023c12.457812-6.799554 22.424062 4.227619 12.538185 13.438362l-30.750702 49.509757a24.610207 24.610207 0 0 1-34.785426-1.22167z" fill="#6BAFFF" p-id="1650"></path><path d="M404.171609 916.13946a24.610207 24.610207 0 0 0 20.961273 27.809051l57.948919-7.635433c14.081346-1.591385 15.849552-16.33179 2.571936-18.212518L431.964586 895.194261a24.610207 24.610207 0 0 0-27.809052 20.945199z" fill="#6BAFFF" p-id="1651"></path><path d="M429.521247 852.982371a24.610207 24.610207 0 0 0 0 34.817576l50.860022 28.773527c12.216693 7.217494 22.504435-3.504262 13.020423-12.988274L464.306673 852.982371a24.610207 24.610207 0 0 0-34.817575 0z" fill="#6BAFFF" p-id="1652"></path><path d="M574.755223 852.982371a24.610207 24.610207 0 0 1 0 34.801501L523.92735 916.52525c-12.216693 7.233568-22.552658-3.456038-13.004348-13.004348L539.953723 852.982371a24.610207 24.610207 0 0 1 34.817575 0z" fill="#6BAFFF" p-id="1653"></path><path d="M603.175109 916.13946a24.610207 24.610207 0 0 1-20.945198 27.809051L524.361364 936.313078c-14.097421-1.57531-15.929925-16.33179-2.571935-18.212518l53.608778-22.906299a24.610207 24.610207 0 0 1 27.809052 20.945199z" fill="#6BAFFF" p-id="1654"></path><path d="M575.848296 993.972654a24.610207 24.610207 0 0 0-1.221669-34.8015l-51.856648-27.005322c-12.441737-6.75133-22.343689 4.307992-12.538185 13.454437l30.815001 49.55798a24.610207 24.610207 0 0 0 34.801501-1.205595z" fill="#6BAFFF" p-id="1655"></path><path d="M803.014489 856.390186m-24.947773 0a24.947773 24.947773 0 1 0 49.895546 0 24.947773 24.947773 0 1 0-49.895546 0Z" fill="#6BAFFF" p-id="1656"></path><path d="M801.439179 757.579643a24.610207 24.610207 0 0 1 24.626281 24.610207l-15.624507 56.261086c-3.520337 13.74378-18.389338 13.502661-18.389338 0l-15.222643-56.261086A24.610207 24.610207 0 0 1 801.439179 757.579643z" fill="#6BAFFF" p-id="1657"></path><path d="M801.455253 957.483321a24.610207 24.610207 0 0 1-24.626281-24.610207l15.624507-56.261086c3.520337-13.74378 18.389338-13.502661 18.389338 0l15.222643 56.261086a24.610207 24.610207 0 0 1-24.610207 24.610207z" fill="#6BAFFF" p-id="1658"></path><path d="M727.721081 927.455975a24.610207 24.610207 0 0 1 1.221669-34.785426l51.792349-26.941023c12.457812-6.799554 22.424062 4.227619 12.538185 13.438362l-30.750703 49.509757a24.610207 24.610207 0 0 1-34.785426-1.22167z" fill="#6BAFFF" p-id="1659"></path><path d="M703.496664 849.622781a24.610207 24.610207 0 0 0 20.961274 27.809051l57.948919-7.635433c14.081346-1.591385 15.849552-16.33179 2.571935-18.212518L731.289641 828.677582a24.610207 24.610207 0 0 0-27.809051 20.945199z" fill="#6BAFFF" p-id="1660"></path><path d="M728.846302 786.465692a24.610207 24.610207 0 0 0 0 34.817576l50.860023 28.773527c12.216693 7.217494 22.504435-3.504262 13.020423-12.988274L763.631728 786.465692a24.610207 24.610207 0 0 0-34.817575 0z" fill="#6BAFFF" p-id="1661"></path><path d="M874.080279 786.465692a24.610207 24.610207 0 0 1 0 34.801501L823.252406 850.008571c-12.216693 7.233568-22.552658-3.456038-13.004349-13.004348L839.278778 786.465692a24.610207 24.610207 0 0 1 34.817575 0z" fill="#6BAFFF" p-id="1662"></path><path d="M902.500165 849.622781a24.610207 24.610207 0 0 1-20.945199 27.809051L823.68642 869.796399c-14.097421-1.57531-15.929925-16.33179-2.571936-18.212518l53.608779-22.906299a24.610207 24.610207 0 0 1 27.809051 20.945199z" fill="#6BAFFF" p-id="1663"></path><path d="M875.173351 927.455975a24.610207 24.610207 0 0 0-1.221669-34.8015l-51.856647-27.005322c-12.441737-6.75133-22.343689 4.307992-12.538185 13.454437l30.815001 49.55798a24.610207 24.610207 0 0 0 34.8015-1.205595z" fill="#6BAFFF" p-id="1664"></path><path d="M221.001585 823.131846m-24.947773 0a24.947773 24.947773 0 1 0 49.895547 0 24.947773 24.947773 0 1 0-49.895547 0Z" fill="#6BAFFF" p-id="1665"></path><path d="M219.426275 724.321304a24.610207 24.610207 0 0 1 24.626281 24.610206l-15.624507 56.261087c-3.520337 13.74378-18.389338 13.502661-18.389338 0l-15.222643-56.261087A24.610207 24.610207 0 0 1 219.426275 724.321304z" fill="#6BAFFF" p-id="1666"></path><path d="M219.44235 924.224982a24.610207 24.610207 0 0 1-24.626282-24.610207l15.624508-56.261087c3.520337-13.74378 18.389338-13.502661 18.389338 0l15.222642 56.261087a24.610207 24.610207 0 0 1-24.610206 24.610207z" fill="#6BAFFF" p-id="1667"></path><path d="M145.708177 894.197636a24.610207 24.610207 0 0 1 1.221669-34.785426l51.792349-26.941023c12.457812-6.799554 22.424062 4.227619 12.538185 13.438362l-30.750702 49.509756a24.610207 24.610207 0 0 1-34.785426-1.221669z" fill="#6BAFFF" p-id="1668"></path><path d="M121.483761 816.364441a24.610207 24.610207 0 0 0 20.961273 27.809052l57.948919-7.635434c14.081346-1.591385 15.849552-16.33179 2.571936-18.212517L149.276737 795.419242a24.610207 24.610207 0 0 0-27.809051 20.945199z" fill="#6BAFFF" p-id="1669"></path><path d="M146.833399 753.207353a24.610207 24.610207 0 0 0 0 34.817575l50.860022 28.773527c12.216693 7.217494 22.504435-3.504262 13.020423-12.988273L181.618825 753.207353a24.610207 24.610207 0 0 0-34.817575 0z" fill="#6BAFFF" p-id="1670"></path><path d="M292.067375 753.207353a24.610207 24.610207 0 0 1 0 34.801501L241.239502 816.750232c-12.216693 7.233568-22.552658-3.456038-13.004348-13.004349L257.265874 753.207353a24.610207 24.610207 0 0 1 34.817576 0z" fill="#6BAFFF" p-id="1671"></path><path d="M320.487261 816.364441a24.610207 24.610207 0 0 1-20.945199 27.809052L241.673516 836.538059c-14.097421-1.57531-15.929925-16.33179-2.571935-18.212517l53.608778-22.9063a24.610207 24.610207 0 0 1 27.809051 20.945199z" fill="#6BAFFF" p-id="1672"></path><path d="M293.160448 894.197636a24.610207 24.610207 0 0 0-1.22167-34.801501l-51.856647-27.005321c-12.441737-6.75133-22.343689 4.307992-12.538185 13.454437l30.815001 49.55798a24.610207 24.610207 0 0 0 34.801501-1.205595z" fill="#6BAFFF" p-id="1673"></path></svg>