<?xml version="1.0" standalone="no"?><!DOCTYPE svg PUBLIC "-//W3C//DTD SVG 1.1//EN" "http://www.w3.org/Graphics/SVG/1.1/DTD/svg11.dtd"><svg t="1679892258858" class="icon" viewBox="0 0 1076 1024" version="1.1" xmlns="http://www.w3.org/2000/svg" p-id="1183" xmlns:xlink="http://www.w3.org/1999/xlink" width="210.15625" height="200"><path d="M612.511832 352.654521m-352.654522 0a352.654521 352.654521 0 1 0 705.309043 0 352.654521 352.654521 0 1 0-705.309043 0Z" fill="#C9EAF2" p-id="1184"></path><path d="M735.739064 828.787466c0 2.063356 80.919455 59.909104 80.919455 113.771678a75.913573 75.913573 0 0 1-80.919455 81.260357 75.913573 75.913573 0 0 1-80.919455-81.206531c0-53.862573 80.919455-115.835034 80.919455-113.825504z" fill="#6BAFFF" p-id="1185"></path><path d="M296.979783 408.347202m-296.979783 0a296.979783 296.979783 0 1 0 593.959566 0 296.979783 296.979783 0 1 0-593.959566 0Z" fill="#C9EAF2" p-id="1186"></path><path d="M816.676461 445.469675m-259.85731 0a259.85731 259.85731 0 1 0 519.714621 0 259.85731 259.85731 0 1 0-519.714621 0Z" fill="#C9EAF2" p-id="1187"></path><path d="M297.015668 705.309043l507.531846-0.287076 10.567973-191.587127-570.706436-58.150766z" fill="#C9EAF2" p-id="1188"></path><path d="M334.102256 371.224729a269.133443 259.85731 0 1 0 538.266886 0 269.133443 259.85731 0 1 0-538.266886 0Z" fill="#FFFFFF" p-id="1189"></path><path d="M148.489892 408.347202a232.01097 222.734837 0 1 0 464.02194 0 232.01097 222.734837 0 1 0-464.02194 0Z" fill="#FFFFFF" p-id="1190"></path><path d="M770.277856 436.1756m-194.888497 0a194.888497 194.888497 0 1 0 389.776994 0 194.888497 194.888497 0 1 0-389.776994 0Z" fill="#FFFFFF" p-id="1191"></path><path d="M378.509274 631.064097h402.390382l-81.852451-149.010216-277.907194-7.356314z" fill="#FFFFFF" p-id="1192"></path><path d="M411.020594 756.623819c0 2.063356 80.919455 59.909104 80.919455 113.771678a75.913573 75.913573 0 0 1-80.919455 81.260357 75.913573 75.913573 0 0 1-80.919455-81.206531c0-53.862573 80.919455-115.835034 80.919455-113.825504z" fill="#6BAFFF" p-id="1193"></path></svg>