<?xml version="1.0" standalone="no"?><!DOCTYPE svg PUBLIC "-//W3C//DTD SVG 1.1//EN" "http://www.w3.org/Graphics/SVG/1.1/DTD/svg11.dtd"><svg t="1679892264472" class="icon" viewBox="0 0 1024 1024" version="1.1" xmlns="http://www.w3.org/2000/svg" p-id="1331" xmlns:xlink="http://www.w3.org/1999/xlink" width="200" height="200"><path d="M582.211645 333.820407m-333.820407 0a333.820407 333.820407 0 1 0 667.640814 0 333.820407 333.820407 0 1 0-667.640814 0Z" fill="#C9EAF2" p-id="1332"></path><path d="M821.855804 784.524662c0 1.953159 76.597814 56.709557 76.597814 107.695508a71.85928 71.85928 0 0 1-76.597814 76.92051 71.85928 71.85928 0 0 1-76.597814-76.869558c0-50.985951 76.597814-109.648667 76.597814-107.74646z" fill="#6BAFFF" p-id="1333"></path><path d="M283.531122 386.538725m-281.119072 0a281.119073 281.119073 0 1 0 562.238145 0 281.119073 281.119073 0 1 0-562.238145 0Z" fill="#C9EAF2" p-id="1334"></path><path d="M775.472516 421.678609m-245.979189 0a245.979189 245.979189 0 1 0 491.958377 0 245.979189 245.979189 0 1 0-491.958377 0Z" fill="#C9EAF2" p-id="1335"></path><path d="M283.56509 667.640814l480.426246-0.271744 10.003572-181.355091-540.226889-55.045125z" fill="#C9EAF2" p-id="1336"></path><path d="M318.671006 351.398841a254.759914 245.979189 0 1 0 509.519828 0 254.759914 245.979189 0 1 0-509.519828 0Z" fill="#FFFFFF" p-id="1337"></path><path d="M142.971586 386.538725a219.62003 210.839305 0 1 0 439.240059 0 219.62003 210.839305 0 1 0-439.240059 0Z" fill="#FFFFFF" p-id="1338"></path><path d="M731.551907 412.8809m-184.480146 0a184.480145 184.480145 0 1 0 368.960291 0 184.480145 184.480145 0 1 0-368.960291 0Z" fill="#FFFFFF" p-id="1339"></path><path d="M360.706392 597.361046h380.900039l-77.480982-141.052073-263.065086-6.963437z" fill="#FFFFFF" p-id="1340"></path><path d="M514.462492 716.215037c0 1.953159 76.597814 56.709557 76.597814 107.695508a71.85928 71.85928 0 0 1-76.597814 76.92051 71.85928 71.85928 0 0 1-76.597814-76.869558c0-50.985951 76.597814-109.648667 76.597814-107.74646z" fill="#6BAFFF" p-id="1341"></path><path d="M286.061738 839.19614c0 1.953159 76.597814 56.709557 76.597814 107.695507a71.85928 71.85928 0 0 1-76.597814 76.92051 71.85928 71.85928 0 0 1-76.597815-76.869558c0-50.985951 76.597814-109.648667 76.597815-107.746459z" fill="#6BAFFF" p-id="1342"></path></svg>