<?xml version="1.0" standalone="no"?><!DOCTYPE svg PUBLIC "-//W3C//DTD SVG 1.1//EN" "http://www.w3.org/Graphics/SVG/1.1/DTD/svg11.dtd"><svg t="1679892294695" class="icon" viewBox="0 0 1024 1024" version="1.1" xmlns="http://www.w3.org/2000/svg" p-id="2589" xmlns:xlink="http://www.w3.org/1999/xlink" width="200" height="200"><path d="M572.828001 289.168453m-289.168453 0a289.168453 289.168453 0 1 0 578.336906 0 289.168453 289.168453 0 1 0-578.336906 0Z" fill="#C9EAF2" p-id="2590"></path><path d="M780.417259 679.586323c0 1.691904 66.352059 49.124063 66.352059 93.290112a62.247353 62.247353 0 0 1-66.352059 66.631591 62.247353 62.247353 0 0 1-66.352059-66.587454c0-44.166049 66.352059-94.982016 66.352059-93.334249z" fill="#6BAFFF" p-id="2591"></path><path d="M314.099107 334.835147m-243.516471 0a243.516471 243.516471 0 1 0 487.032942 0 243.516471 243.516471 0 1 0-487.032942 0Z" fill="#C9EAF2" p-id="2592"></path><path d="M740.238218 365.274706m-213.076911 0a213.076912 213.076912 0 1 0 426.153823 0 213.076912 213.076912 0 1 0-426.153823 0Z" fill="#C9EAF2" p-id="2593"></path><path d="M314.128531 578.336906l416.164235-0.235396 8.66549-157.096959-467.965919-47.682267z" fill="#C9EAF2" p-id="2594"></path><path d="M344.538666 304.395588a220.683123 213.076912 0 1 0 441.366247 0 220.683123 213.076912 0 1 0-441.366247 0Z" fill="#FFFFFF" p-id="2595"></path><path d="M192.340872 334.835147a190.243565 182.637353 0 1 0 380.487129 0 190.243565 182.637353 0 1 0-380.487129 0Z" fill="#FFFFFF" p-id="2596"></path><path d="M702.192448 357.653782m-159.804006 0a159.804006 159.804006 0 1 0 319.608012 0 159.804006 159.804006 0 1 0-319.608012 0Z" fill="#FFFFFF" p-id="2597"></path><path d="M380.951381 517.457788h329.950694l-67.117094-122.184889-227.877393-6.032006z" fill="#FFFFFF" p-id="2598"></path><path d="M514.141002 620.413821c0 1.691904 66.352059 49.124063 66.352059 93.290112a62.247353 62.247353 0 0 1-66.352059 66.631592 62.247353 62.247353 0 0 1-66.352059-66.587455c0-44.166049 66.352059-94.982016 66.352059-93.334249z" fill="#6BAFFF" p-id="2599"></path><path d="M316.291226 726.944921c0 1.691904 66.352059 49.124063 66.352059 93.290112a62.247353 62.247353 0 0 1-66.352059 66.631591 62.247353 62.247353 0 0 1-66.352059-66.587454c0-44.166049 66.352059-94.982016 66.352059-93.334249z" fill="#6BAFFF" p-id="2600"></path><path d="M620.672102 863.91558c0 1.691904 66.352059 49.124063 66.352059 93.290112a62.247353 62.247353 0 0 1-66.352059 66.631591 62.247353 62.247353 0 0 1-66.352059-66.587454c0-44.166049 66.352059-94.982016 66.352059-93.334249z" fill="#6BAFFF" p-id="2601"></path></svg>