<?xml version="1.0" standalone="no"?><!DOCTYPE svg PUBLIC "-//W3C//DTD SVG 1.1//EN" "http://www.w3.org/Graphics/SVG/1.1/DTD/svg11.dtd"><svg t="1679892339553" class="icon" viewBox="0 0 1107 1024" version="1.1" xmlns="http://www.w3.org/2000/svg" p-id="3919" xmlns:xlink="http://www.w3.org/1999/xlink" width="216.2109375" height="200"><path d="M741.252968 670.911458c0 1.218195 47.860283 35.438389 47.860283 67.277566a44.888626 44.888626 0 0 1-47.860283 47.989485 44.888626 44.888626 0 0 1-47.860282-47.95257c0-31.857635 47.860283-68.514219 47.860282-67.314481z" fill="#6BAFFF" p-id="3920"></path><path d="M589.864601 698.228549c0 1.439685 56.590677 41.898512 56.590677 79.5518a53.083753 53.083753 0 0 1-56.590677 56.86754 53.083753 53.083753 0 0 1-56.590678-56.830625c0-37.653288 56.590677-80.991485 56.590678-79.588715z" fill="#6BAFFF" p-id="3921"></path><path d="M438.476233 670.911458c0 1.218195 47.860283 35.438389 47.860282 67.277566a44.888626 44.888626 0 0 1-47.860282 47.989485 44.888626 44.888626 0 0 1-47.860283-47.95257c0-31.857635 47.860283-68.514219 47.860283-67.314481z" fill="#6BAFFF" p-id="3922"></path><path d="M589.864601 887.45478c0 1.439685 56.590677 41.898512 56.590677 79.5518a53.083753 53.083753 0 0 1-56.590677 56.86754 53.083753 53.083753 0 0 1-56.590678-56.830625c0-37.653288 56.590677-80.991485 56.590678-79.588715z" fill="#6BAFFF" p-id="3923"></path><path d="M741.234511 824.385522c0 1.439685 56.590677 41.898512 56.590677 79.5518a53.083753 53.083753 0 0 1-56.590677 56.86754 53.083753 53.083753 0 0 1-56.590678-56.830625c0-37.653288 56.590677-80.991485 56.590678-79.588715z" fill="#6BAFFF" p-id="3924"></path><path d="M438.476233 824.385522c0 1.439685 56.590677 41.898512 56.590677 79.5518a53.083753 53.083753 0 0 1-56.590677 56.86754 53.083753 53.083753 0 0 1-56.590677-56.830625c0-37.653288 56.590677-80.991485 56.590677-79.588715z" fill="#6BAFFF" p-id="3925"></path><path d="M630.101938 362.782049m-362.782049 0a362.782049 362.782049 0 1 0 725.564098 0 362.782049 362.782049 0 1 0-725.564098 0Z" fill="#C9EAF2" p-id="3926"></path><path d="M305.508444 420.074111m-305.508444 0a305.508444 305.508444 0 1 0 611.016889 0 305.508444 305.508444 0 1 0-611.016889 0Z" fill="#C9EAF2" p-id="3927"></path><path d="M840.129765 458.262667m-267.319889 0a267.319889 267.319889 0 1 0 534.639778 0 267.319889 267.319889 0 1 0-534.639778 0Z" fill="#C9EAF2" p-id="3928"></path><path d="M305.545359 725.582556l522.10714-0.29532 10.871464-197.089124-587.095977-59.820738z" fill="#C9EAF2" p-id="3929"></path><path d="M343.697 381.885556a276.862413 267.319889 0 1 0 553.724827 0 276.862413 267.319889 0 1 0-553.724827 0Z" fill="#FFFFFF" p-id="3930"></path><path d="M152.754222 420.074111a238.673858 229.131333 0 1 0 477.347716 0 238.673858 229.131333 0 1 0-477.347716 0Z" fill="#FFFFFF" p-id="3931"></path><path d="M792.398685 448.701685m-200.485303 0a200.485302 200.485302 0 1 0 400.970605 0 200.485302 200.485302 0 1 0-400.970605 0Z" fill="#FFFFFF" p-id="3932"></path><path d="M389.379298 649.205445h413.946223l-84.203088-153.28949-285.888128-7.567573z" fill="#FFFFFF" p-id="3933"></path></svg>