<?xml version="1.0" standalone="no"?><!DOCTYPE svg PUBLIC "-//W3C//DTD SVG 1.1//EN" "http://www.w3.org/Graphics/SVG/1.1/DTD/svg11.dtd"><svg t="1679892334693" class="icon" viewBox="0 0 1024 1024" version="1.1" xmlns="http://www.w3.org/2000/svg" p-id="3771" xmlns:xlink="http://www.w3.org/1999/xlink" width="200" height="200"><path d="M580.915955 327.661942m-327.661942 0a327.661942 327.661942 0 1 0 655.323884 0 327.661942 327.661942 0 1 0-655.323884 0Z" fill="#C9EAF2" p-id="3772"></path><path d="M665.269525 699.417797c0 1.967139 77.351891 57.280409 77.351891 108.759425a72.56741 72.56741 0 0 1-77.351891 77.685304 72.56741 72.56741 0 0 1-77.35189-77.635292c0-51.495688 77.351891-110.726564 77.35189-108.809437z" fill="#6BAFFF" p-id="3773"></path><path d="M287.745621 379.40769m-275.932866 0a275.932865 275.932865 0 1 0 551.865731 0 275.932865 275.932865 0 1 0-551.865731 0Z" fill="#C9EAF2" p-id="3774"></path><path d="M770.611465 413.899298m-241.441258 0a241.441257 241.441257 0 1 0 482.882515 0 241.441257 241.441257 0 1 0-482.882515 0Z" fill="#C9EAF2" p-id="3775"></path><path d="M287.778962 655.323885l471.563132-0.266731 9.819023-178.009373-530.260548-54.029629z" fill="#C9EAF2" p-id="3776"></path><path d="M322.237229 344.916082a250.059992 241.441257 0 1 0 500.119983 0 250.059992 241.441257 0 1 0-500.119983 0Z" fill="#FFFFFF" p-id="3777"></path><path d="M149.779188 379.40769a215.568383 206.949649 0 1 0 431.136767 0 215.568383 206.949649 0 1 0-431.136767 0Z" fill="#FFFFFF" p-id="3778"></path><path d="M727.501122 405.263893m-181.076775 0a181.076775 181.076775 0 1 0 362.15355 0 181.076775 181.076775 0 1 0-362.15355 0Z" fill="#FFFFFF" p-id="3779"></path><path d="M363.497128 586.340668h373.873028l-76.051578-138.449882-258.211948-6.834973z" fill="#FFFFFF" p-id="3780"></path><path d="M441.082408 837.384229c0 1.967139 77.351891 57.280409 77.35189 108.759426a72.56741 72.56741 0 0 1-77.35189 77.685304 72.56741 72.56741 0 0 1-77.351891-77.635292c0-51.495688 77.351891-110.726564 77.351891-108.809438z" fill="#6BAFFF" p-id="3781"></path></svg>