<?xml version="1.0" standalone="no"?><!DOCTYPE svg PUBLIC "-//W3C//DTD SVG 1.1//EN" "http://www.w3.org/Graphics/SVG/1.1/DTD/svg11.dtd"><svg t="1679892346477" class="icon" viewBox="0 0 1031 1024" version="1.1" xmlns="http://www.w3.org/2000/svg" p-id="4228" xmlns:xlink="http://www.w3.org/1999/xlink" width="201.3671875" height="200"><path d="M586.876723 337.895073m-337.895073 0a337.895073 337.895073 0 1 0 675.790146 0 337.895073 337.895073 0 1 0-675.790146 0Z" fill="#C9EAF2" p-id="4229"></path><path d="M284.550457 391.256879m-284.550457 0a284.550457 284.550457 0 1 0 569.100915 0 284.550457 284.550457 0 1 0-569.100915 0Z" fill="#C9EAF2" p-id="4230"></path><path d="M782.496567 426.825686m-248.981651 0a248.98165 248.98165 0 1 0 497.963301 0 248.98165 248.98165 0 1 0-497.963301 0Z" fill="#C9EAF2" p-id="4231"></path><path d="M284.58484 675.790145l486.290406-0.275061 10.125677-183.56874-546.820985-55.717015z" fill="#C9EAF2" p-id="4232"></path><path d="M320.119265 355.688072a257.869554 248.98165 0 1 0 515.739108 0 257.869554 248.98165 0 1 0-515.739108 0Z" fill="#FFFFFF" p-id="4233"></path><path d="M142.275229 391.256879a222.300747 213.412843 0 1 0 444.601494 0 222.300747 213.412843 0 1 0-444.601494 0Z" fill="#FFFFFF" p-id="4234"></path><path d="M738.039856 417.920591m-186.73194 0a186.73194 186.73194 0 1 0 373.46388 0 186.73194 186.73194 0 1 0-373.46388 0Z" fill="#FFFFFF" p-id="4235"></path><path d="M362.667741 604.652531h385.549366l-78.426727-142.773777-266.276101-7.048434z" fill="#FFFFFF" p-id="4236"></path><path d="M417.937782 915.883892m-26.680903 0a26.680903 26.680903 0 1 0 53.361806 0 26.680903 26.680903 0 1 0-53.361806 0Z" fill="#6BAFFF" p-id="4237"></path><path d="M416.253035 810.208948a26.319886 26.319886 0 0 1 26.337077 26.319886l-16.709947 60.169563c-3.764895 14.698565-19.666851 14.440695-19.666852 0l-16.280164-60.169563A26.319886 26.319886 0 0 1 416.253035 810.208948z" fill="#6BAFFF" p-id="4238"></path><path d="M416.270226 1024a26.319886 26.319886 0 0 1-26.337077-26.319886l16.709947-60.169563c3.764895-14.698565 19.666851-14.440695 19.666851 0l16.280165 60.169563a26.319886 26.319886 0 0 1-26.319886 26.319886z" fill="#6BAFFF" p-id="4239"></path><path d="M337.413716 991.886645a26.319886 26.319886 0 0 1 1.306539-37.201981l55.39038-28.812625c13.32326-7.271921 23.981869 4.521313 13.409217 14.37193l-32.886964 52.949215a26.319886 26.319886 0 0 1-37.201981-1.306539z" fill="#6BAFFF" p-id="4240"></path><path d="M311.506422 908.646353a26.319886 26.319886 0 0 0 22.417459 29.740955l61.97465-8.165869c15.059582-1.701939 16.950625-17.466364 2.750609-19.477747L341.230186 886.246084a26.319886 26.319886 0 0 0-29.740956 22.400269z" fill="#6BAFFF" p-id="4241"></path><path d="M338.617107 841.101721a26.319886 26.319886 0 0 0 0 37.236363l54.393285 30.772434c13.065391 7.718895 24.067825-3.747704 13.924956-13.890573L375.819088 841.101721a26.319886 26.319886 0 0 0-37.236363 0z" fill="#6BAFFF" p-id="4242"></path><path d="M493.940536 841.101721a26.319886 26.319886 0 0 1 0 37.219172L439.581634 909.058944c-13.065391 7.736087-24.119399-3.69613-13.907765-13.907765L456.721363 841.101721a26.319886 26.319886 0 0 1 37.236364 0z" fill="#6BAFFF" p-id="4243"></path><path d="M524.33476 908.646353a26.319886 26.319886 0 0 1-22.400268 29.740955L440.045799 930.221439c-15.076773-1.684748-17.036582-17.466364-2.750609-19.477747l57.332998-24.497608a26.319886 26.319886 0 0 1 29.740955 22.400269z" fill="#6BAFFF" p-id="4244"></path><path d="M495.109544 991.886645a26.319886 26.319886 0 0 0-1.306539-37.219172l-55.459145-28.881391c-13.306069-7.220348-23.895912 4.607269-13.409217 14.389122l32.955729 53.000789a26.319886 26.319886 0 0 0 37.219172-1.289348z" fill="#6BAFFF" p-id="4245"></path><path d="M738.057047 844.746277m-26.680903 0a26.680903 26.680903 0 1 0 53.361806 0 26.680903 26.680903 0 1 0-53.361806 0Z" fill="#6BAFFF" p-id="4246"></path><path d="M736.372299 739.071334a26.319886 26.319886 0 0 1 26.337077 26.319886l-16.709947 60.169562c-3.764895 14.698565-19.666851 14.440695-19.666851 0l-16.280165-60.169562A26.319886 26.319886 0 0 1 736.372299 739.071334z" fill="#6BAFFF" p-id="4247"></path><path d="M736.38949 952.862386a26.319886 26.319886 0 0 1-26.337077-26.319886l16.709947-60.169563c3.764895-14.698565 19.666851-14.440695 19.666852 0l16.280164 60.169563a26.319886 26.319886 0 0 1-26.319886 26.319886z" fill="#6BAFFF" p-id="4248"></path><path d="M657.532981 920.74903a26.319886 26.319886 0 0 1 1.306539-37.201981l55.39038-28.812624c13.32326-7.271921 23.981869 4.521313 13.409217 14.371929l-32.886964 52.949216a26.319886 26.319886 0 0 1-37.201981-1.30654z" fill="#6BAFFF" p-id="4249"></path><path d="M631.625686 837.508738a26.319886 26.319886 0 0 0 22.41746 29.740956l61.97465-8.16587c15.059582-1.701939 16.950625-17.466364 2.750608-19.477747L661.34945 815.10847a26.319886 26.319886 0 0 0-29.740955 22.400268z" fill="#6BAFFF" p-id="4250"></path><path d="M658.736372 769.964106a26.319886 26.319886 0 0 0 0 37.236364l54.393285 30.772434c13.065391 7.718895 24.067825-3.747704 13.924956-13.890574L695.938353 769.964106a26.319886 26.319886 0 0 0-37.236364 0z" fill="#6BAFFF" p-id="4251"></path><path d="M814.0598 769.964106a26.319886 26.319886 0 0 1 0 37.219173L759.700898 837.92133c-13.065391 7.736087-24.119399-3.69613-13.907764-13.907765L776.840628 769.964106a26.319886 26.319886 0 0 1 37.236364 0z" fill="#6BAFFF" p-id="4252"></path><path d="M844.454025 837.508738a26.319886 26.319886 0 0 1-22.400269 29.740956L760.165063 859.083824c-15.076773-1.684748-17.036582-17.466364-2.750608-19.477747l57.332997-24.497607a26.319886 26.319886 0 0 1 29.740956 22.400268z" fill="#6BAFFF" p-id="4253"></path><path d="M815.228809 920.74903a26.319886 26.319886 0 0 0-1.306539-37.219172l-55.459146-28.88139c-13.306069-7.220348-23.895912 4.607269-13.409217 14.389121l32.95573 53.000789a26.319886 26.319886 0 0 0 37.219172-1.289348z" fill="#6BAFFF" p-id="4254"></path></svg>